<?xml version="1.0" encoding="UTF-8"?><svg id="b" xmlns="http://www.w3.org/2000/svg" width="658.14" height="509.11" viewBox="0 0 658.14 509.11"><g id="c"><path d="m328.92.91h311.11c13.77,0,22.48,14.78,15.85,26.84-24.58,44.7-39.62,93.66-71.79,130.68-6.79,7.82-15.04,6.05-22.83,6.11-51.14.38-102.29.12-153.43.26-10.68.03-19.96.63-26.45-11.65-21.76-41.12-44.32-81.83-68.28-125.37-6.64-12.06,2.07-26.86,15.84-26.86Z" fill="#f7f7f6" stroke-width="0"/><path d="m18.11,163.4c-13.77,0-22.48-14.79-15.84-26.86C25.46,94.43,47.81,54.04,69.53,13.32,75.65,1.85,83.89-.09,95.4,0c52.13.4,104.27.27,156.41.1,9.83-.03,18.26.13,23.97,10.76,22.29,41.53,45.02,82.83,68.54,125.71,6.62,12.06-2.1,26.83-15.86,26.83H18.11Z" fill="#f8f7f7" stroke-width="0"/><path d="m344.41,217.54c-52.18,94.98-102.79,187.1-155.03,282.19-6.86,12.48-24.82,12.51-31.73.06-24.42-44.05-47.7-86.03-70.99-128-4.66-8.4,1.77-14.26,5.08-20.37,26.2-48.43,52.89-96.61,79.12-145.03,5.41-9.99,11.2-16.25,24.27-16.06,43.6.64,87.21.45,133.35.36,13.78-.03,22.56,14.77,15.92,26.85Z" fill="#fafaf9" stroke-width="0"/></g></svg>